<?xml version="1.0" encoding="UTF-8"?>
<svg width="74px" height="15px" viewBox="0 0 74 15" version="1.1" xmlns="http://www.w3.org/2000/svg" xmlns:xlink="http://www.w3.org/1999/xlink">
    <!-- Generator: Sketch 54.1 (76490) - https://sketchapp.com -->
    <title>Logo</title>
    <desc>Created with Sketch.</desc>
    <g id="Symbols-💎💎💎" stroke="none" stroke-width="1" fill="none" fill-rule="evenodd">
        <g id="Menu/Color" transform="translate(0.000000, -13.000000)" fill="#0A1A42" fill-rule="nonzero">
            <g id="Logo">
                <path d="M1.36779477e-13,13.1099109 L3.04612497,13.1099109 L5.64574953,19.767728 L8.25529633,13.1099109 L10.8549209,19.767728 L13.4446232,13.1099109 L16.4907482,13.1099109 L10.8549209,27.4872238 L8.2156074,20.4920509 L5.64574953,27.4872238 L1.36779477e-13,13.1099109 Z M17.7111826,13.0801442 L26.1946903,13.0801442 L26.1946903,15.8980578 L20.5390185,15.8980578 L20.5390185,18.7258937 L24.7758112,18.7258937 L24.7758112,21.5438074 L20.5390185,21.5438074 L20.5390185,24.3815655 L26.1946903,24.3815655 L26.1946903,27.1895569 L17.7111826,27.1895569 L17.7111826,13.0801442 Z M34.0134084,13.0007663 L34.0233307,13.0206108 C35.9144598,13.0282468 37.7273913,13.7762146 39.0737463,15.1042793 L37.0595334,17.1184923 C36.1962993,16.2850249 35.1941539,15.8583689 34.0431751,15.8583689 C32.9039452,15.8438363 31.8091366,16.2997074 31.0168946,17.1184923 C30.1834272,17.9618819 29.7666935,18.9739495 29.7666935,20.1447728 C29.7483829,21.2827529 30.2007607,22.3777944 31.0168946,23.1710533 C31.9953198,24.1619883 33.3974068,24.6102573 34.769229,24.3707328 C36.1410512,24.1312083 37.3082712,23.2343301 37.8930008,21.9704633 L33.8844194,21.9704633 L33.8844194,19.2815387 L41.0978815,19.2815387 C41.3648386,21.459504 40.6103912,23.6386118 39.0539019,25.1852662 C37.6548673,26.5743786 35.968088,27.278857 34.0134084,27.278857 C32.1188803,27.3082746 30.2971133,26.5501033 28.9828372,25.1852662 C27.5838026,23.8060761 26.8892464,22.129219 26.8892464,20.1447728 C26.8618436,18.2477292 27.6194772,16.4236635 28.9828372,15.1042793 C30.3620274,13.6953225 32.0388844,13.0007663 34.0134084,13.0007663 Z M42.3480826,13.1099109 L45.1759185,13.1099109 L45.1759185,24.361721 L50.821668,24.361721 L50.821668,27.1697124 L42.3480826,27.1697124 L42.3480826,13.1099109 Z M57.7870743,13.0007663 C59.6862899,12.9723695 61.5119444,13.7342568 62.8275677,15.1042793 C64.2266023,16.5033139 64.9310807,18.180171 64.9310807,20.1447728 C64.9594776,22.0439884 64.1975903,23.8696429 62.8275677,25.1852662 C61.4285331,26.5743786 59.7516761,27.2689347 57.7870743,27.2689347 C55.8930787,27.2907296 54.0723402,26.5380621 52.7465809,25.1852662 C51.3475463,23.7961538 50.6529901,22.1093745 50.6529901,20.1447728 C50.6255872,18.2477292 51.3832208,16.4236635 52.7465809,15.1042793 C54.1456154,13.6953225 55.8224725,13.0007663 57.7870743,13.0007663 Z M57.7870743,15.8484467 C56.6462295,15.8254741 55.5481833,16.2826933 54.7607938,17.10857 C53.9174041,17.9519597 53.5006704,18.9640273 53.5006704,20.1348505 C53.4837607,21.2745385 53.9400092,22.3702534 54.7607938,23.161131 C55.5942612,23.9846762 56.5964065,24.4014099 57.7870743,24.4014099 C58.919269,24.414927 60.0082246,23.9671657 60.8034326,23.161131 C61.6468222,22.3276636 62.0635559,21.315596 62.0635559,20.1348505 C62.0804656,18.9951625 61.6242171,17.8994477 60.8034326,17.10857 C59.9699651,16.2651804 58.9578976,15.8484467 57.7870743,15.8484467 Z M64.2464468,13.1099109 L74,13.1099109 L74,15.9079801 L70.5470636,15.9079801 L70.5470636,27.1697124 L67.7093054,27.1697124 L67.7093054,15.9079801 L64.2464468,15.9079801 L64.2464468,13.1099109 Z"></path>
            </g>
        </g>
    </g>
</svg>